<?xml version="1.0" standalone="no"?>
<!DOCTYPE svg PUBLIC "-//W3C//DTD SVG 20010904//EN"
 "http://www.w3.org/TR/2001/REC-SVG-20010904/DTD/svg10.dtd">
<svg version="1.0" xmlns="http://www.w3.org/2000/svg"
 width="536.000000pt" height="536.000000pt" viewBox="0 0 536.000000 536.000000"
 preserveAspectRatio="xMidYMid meet">
<metadata>
Created by potrace 1.11, written by Peter Selinger 2001-2013
</metadata>
<g transform="translate(0.000000,536.000000) scale(0.100000,-0.100000)"
fill="#000000" stroke="none">
<path d="M1440 4948 c-31 -11 -47 -57 -54 -148 -4 -47 -8 -98 -11 -115 -2 -16
-7 -57 -10 -89 -2 -33 -7 -61 -9 -63 -2 -2 -37 -6 -77 -8 -51 -2 -77 -8 -85
-19 -14 -20 -11 -113 4 -128 6 -6 41 -12 76 -13 36 0 68 -4 72 -7 5 -6 11
-197 15 -541 1 -59 6 -110 11 -114 7 -3 6 -8 0 -12 -8 -5 -12 -395 -13 -1276
-1 -841 -4 -1263 -11 -1251 -5 10 -7 20 -4 23 7 8 -13 33 -26 33 -6 0 -5 -7 2
-15 15 -18 7 -31 -12 -19 -21 13 -39 13 -35 1 2 -7 9 -13 15 -13 7 -1 20 -2
30 -3 14 -2 13 -4 -5 -11 -22 -9 -28 -21 -23 -45 1 -5 -2 -7 -5 -3 -4 4 -16
-4 -27 -17 -18 -23 -21 -24 -42 -10 -21 14 -25 14 -37 -1 -12 -15 -12 -16 7
-10 14 4 26 1 34 -9 8 -10 9 -15 1 -15 -6 0 -11 5 -11 10 0 6 -5 10 -11 10 -6
0 -8 -7 -5 -17 6 -15 4 -15 -14 2 -21 19 -29 8 -9 -12 6 -6 8 -17 3 -24 -15
-25 -11 -50 10 -65 11 -8 15 -14 9 -14 -6 0 -16 7 -23 15 -17 20 -25 19 -27
-4 -1 -13 3 -18 11 -15 8 3 21 -2 30 -11 11 -11 16 -12 16 -4 0 7 6 4 14 -7 9
-12 11 -21 4 -25 -7 -4 -7 -9 0 -13 6 -3 13 -2 17 4 3 5 11 10 18 10 6 0 2 -6
-9 -14 -10 -8 -15 -18 -11 -22 4 -5 11 -3 15 3 6 9 16 5 36 -12 16 -13 36 -27
46 -30 10 -3 21 -13 24 -22 5 -13 4 -14 -9 -3 -21 17 -19 1 2 -24 16 -18 16
-19 1 -8 -15 12 -17 11 -15 -7 1 -14 6 -20 16 -16 11 4 11 3 2 -9 -7 -8 -8
-17 -3 -20 5 -3 8 -15 7 -28 -1 -13 3 -26 9 -30 8 -5 7 -8 -2 -8 -17 0 4 -36
40 -67 27 -24 35 -68 10 -58 -7 3 -10 0 -7 -6 4 -5 15 -7 26 -4 12 4 19 2 19
-6 0 -7 3 -9 7 -5 5 4 -1 14 -11 22 -19 14 -19 14 2 14 12 0 25 0 29 1 4 0 9
-5 11 -13 3 -11 2 -11 -6 0 -6 9 -9 3 -9 -20 -1 -23 1 -27 6 -15 4 10 11 19
16 20 6 1 9 8 7 16 -3 11 0 10 13 -3 21 -20 26 -20 18 1 -5 12 -1 11 15 -5 20
-20 29 -24 48 -21 4 0 11 -5 16 -13 8 -10 9 -10 5 2 -2 8 -9 15 -15 15 -7 0
-12 3 -12 8 0 7 4 8 18 6 4 -1 16 -2 27 -3 14 -1 20 -8 19 -23 -2 -26 11 -31
20 -7 3 8 2 12 -4 9 -6 -3 -7 1 -3 10 3 9 9 13 12 8 9 -12 31 -14 31 -3 0 6 5
10 11 10 5 0 8 -4 4 -9 -3 -5 -1 -12 4 -15 5 -4 12 -2 16 4 3 5 11 10 18 10 6
0 3 -6 -7 -13 -17 -12 -17 -14 1 -28 17 -13 17 -13 3 5 -14 18 -13 19 2 14 10
-4 19 -1 22 8 3 8 11 14 18 13 10 0 10 -2 1 -6 -18 -7 -16 -20 2 -20 8 0 15 4
15 8 0 4 7 10 16 13 8 3 12 2 9 -3 -3 -5 -1 -12 4 -15 5 -4 12 -2 16 4 8 13
25 13 25 -1 0 -5 -5 -7 -12 -3 -6 4 -8 3 -4 -4 7 -12 -12 -11 -34 3 -13 8 -13
6 -2 -8 8 -9 11 -22 7 -29 -4 -7 1 -4 9 6 9 11 16 16 16 10 1 -5 10 2 20 15
11 13 20 18 20 12 0 -14 33 -14 47 0 8 8 15 5 25 -10 16 -23 30 -18 21 7 -4
13 -3 14 4 4 6 -7 16 -12 24 -10 10 2 13 -6 12 -27 -2 -21 0 -26 7 -15 5 8 6
18 4 22 -3 4 0 8 6 8 6 0 8 5 4 12 -4 7 -3 8 5 4 6 -4 9 -12 6 -17 -3 -5 1 -6
9 -3 9 3 13 10 10 16 -3 5 12 -2 35 -16 39 -25 59 -26 26 -2 -12 9 -8 11 20
12 19 1 35 -2 35 -7 0 -4 -9 -6 -20 -4 -11 2 -18 0 -15 -5 3 -5 14 -7 25 -5
11 2 22 0 25 -6 8 -12 25 -12 25 1 0 5 -3 9 -7 7 -5 -1 -9 2 -11 8 -2 5 1 11
7 13 6 2 11 -2 11 -8 0 -9 4 -9 16 1 14 11 19 10 34 -8 20 -25 37 -19 17 6
-11 14 -10 14 5 2 10 -7 25 -11 33 -7 9 3 18 -1 21 -9 4 -8 15 -13 27 -11 12
2 28 -4 35 -13 11 -14 12 -13 3 6 -7 14 -18 21 -31 18 -11 -2 -20 0 -20 6 0
13 47 3 65 -14 8 -8 12 -17 10 -19 -3 -3 5 -4 16 -3 12 1 28 10 35 20 8 10 14
15 14 11 0 -5 6 -3 14 3 12 10 17 7 29 -15 12 -22 15 -24 20 -10 4 9 3 15 -1
12 -5 -3 -9 1 -9 8 0 7 6 13 13 13 7 0 11 -4 8 -9 -8 -12 10 -10 23 3 7 7 13
8 17 0 5 -7 15 -7 32 -1 18 7 23 7 18 -1 -4 -8 0 -9 15 -4 13 4 21 2 21 -5 0
-6 -4 -9 -9 -6 -11 7 -8 -21 4 -31 4 -4 5 -3 1 4 -9 17 10 26 32 14 14 -7 19
-6 19 4 0 7 -6 11 -12 8 -7 -2 -15 3 -18 11 -5 12 -1 13 16 7 12 -4 28 -6 35
-4 6 3 12 -3 12 -12 0 -9 -4 -13 -10 -10 -5 3 -10 2 -10 -4 0 -5 9 -9 20 -8
15 1 19 6 14 22 l-7 20 23 -20 23 -20 -12 23 c-14 26 -9 28 13 6 9 -8 16 -11
16 -4 0 7 5 6 14 -2 8 -7 12 -15 11 -18 -2 -3 4 -6 14 -6 13 0 16 6 13 25 -3
16 -1 22 7 17 6 -4 9 -11 7 -15 -3 -3 4 -7 15 -7 10 0 19 4 19 8 0 4 7 8 15 8
8 0 15 -6 15 -12 0 -9 3 -9 8 -2 4 6 16 14 27 17 19 7 19 6 3 -7 -23 -17 -23
-29 0 -17 11 6 24 6 33 0 21 -13 31 -11 17 5 -7 8 -16 12 -21 9 -4 -2 -7 1 -7
7 0 8 7 9 18 5 22 -10 32 -10 60 -1 14 5 22 3 22 -4 0 -6 -4 -8 -10 -5 -5 3
-10 1 -10 -4 0 -6 7 -11 15 -11 8 0 15 7 15 16 0 14 2 15 17 3 14 -12 16 -12
8 0 -5 10 -4 12 3 7 7 -4 12 -1 12 6 0 8 3 9 8 3 8 -12 32 -13 49 -2 6 4 14 3
18 -3 4 -7 13 -6 27 1 16 9 19 8 13 -2 -6 -9 -3 -11 9 -6 10 4 19 1 22 -8 4
-8 11 -15 17 -15 7 0 7 4 -1 12 -20 20 -14 24 43 23 42 0 58 -5 70 -20 16 -19
16 -19 5 3 -17 34 -4 39 14 5 15 -27 15 -27 13 -4 -2 22 2 25 38 27 22 1 40 3
40 4 0 8 91 4 97 -5 5 -6 8 -5 8 3 0 7 5 10 10 7 6 -3 10 -3 10 2 0 4 17 8 38
7 20 0 42 2 47 6 17 10 40 5 37 -9 -1 -7 2 -10 8 -6 6 3 8 11 5 16 -6 9 4 12
40 11 11 0 22 3 25 7 10 13 50 31 50 22 0 -5 6 -11 13 -14 8 -3 14 1 14 9 0 7
-4 11 -9 8 -15 -10 -8 6 12 26 11 11 25 20 31 20 6 0 9 7 6 15 -4 8 -2 17 4
20 5 4 7 11 4 16 -4 5 -1 9 5 9 6 0 8 5 4 12 -5 8 -2 9 9 5 10 -3 17 -2 17 2
0 5 -6 11 -12 14 -7 2 -9 8 -5 13 5 5 18 -2 29 -16 20 -24 20 -24 14 -2 -5 13
-3 22 3 22 6 0 12 -4 12 -10 1 -5 2 -15 3 -22 0 -6 11 -12 23 -13 14 -1 19 3
16 12 -3 7 -9 11 -14 8 -4 -3 -13 4 -19 15 -7 13 -18 19 -28 16 -9 -3 -24 -1
-32 5 -13 9 -13 10 1 6 9 -3 22 0 28 6 10 9 17 6 33 -13 18 -22 20 -22 14 -4
-4 15 -2 21 9 21 11 0 13 -6 9 -20 -4 -13 -2 -17 5 -13 6 4 11 12 11 17 0 6 7
17 15 26 9 8 13 23 10 33 -4 12 -1 18 7 16 18 -2 58 -43 50 -51 -4 -3 2 -3 13
1 19 7 19 7 2 -13 -14 -16 -15 -23 -6 -29 8 -5 10 -3 4 6 -6 9 -4 12 7 8 25
-10 14 33 -12 47 -22 12 -22 13 -4 23 16 9 17 14 7 30 -10 17 -9 20 13 19 20
0 22 -2 13 -13 -7 -8 -9 -17 -5 -21 3 -3 6 -1 6 7 0 10 3 10 15 0 9 -7 18 -10
22 -7 3 4 -1 9 -10 13 -13 5 -14 9 -5 24 7 10 16 16 22 13 5 -4 6 -1 1 7 -4 7
-2 16 6 21 22 14 33 10 19 -6 -9 -10 -9 -15 -1 -15 6 0 11 5 11 10 0 6 0 13 0
18 0 4 -9 8 -20 8 -11 1 -20 -3 -20 -9 0 -16 -14 1 -16 21 -2 9 -8 18 -13 20
-7 2 -5 10 4 19 8 8 13 19 10 24 -4 5 -2 9 3 9 6 0 13 -7 16 -16 8 -22 8 -26
-3 -19 -5 3 -12 1 -15 -4 -4 -5 -1 -13 6 -18 19 -11 68 -12 68 -1 0 5 -4 7 -9
4 -5 -3 -14 1 -21 8 -9 12 -8 20 6 41 16 24 16 25 -1 18 -13 -4 -16 -3 -11 5
4 6 2 20 -3 30 -7 13 -7 22 1 30 6 6 7 16 0 27 -6 12 -11 14 -16 6 -4 -6 -12
-11 -18 -11 -7 0 -6 6 2 15 10 12 10 18 0 30 -8 10 -9 15 -2 15 6 0 16 -8 21
-17 6 -10 11 -13 11 -7 0 17 -27 37 -40 29 -6 -3 -8 -10 -6 -14 3 -4 -4 -12
-15 -19 -10 -7 -19 -9 -19 -6 0 9 43 68 52 72 4 2 8 8 8 13 0 5 -9 4 -19 -3
-11 -7 -19 -17 -18 -22 1 -6 -6 -10 -15 -10 -10 1 -15 -3 -11 -9 4 -6 1 -7 -7
-2 -9 6 -11 4 -5 -4 6 -10 3 -11 -13 -2 -26 14 -35 28 -23 35 5 3 12 -1 15
-10 5 -12 10 -14 20 -5 7 6 16 8 19 4 4 -3 7 -1 7 5 0 7 -7 12 -16 12 -11 0
-14 5 -10 16 3 9 6 18 6 20 0 3 5 2 10 -1 6 -4 5 6 -2 22 -16 39 -25 47 -33
32 -5 -8 -4 -10 3 -5 7 4 12 3 12 -3 0 -5 3 -18 7 -28 6 -17 5 -17 -13 -2 -10
9 -24 15 -29 13 -6 -3 -20 4 -31 15 -17 15 -23 16 -38 5 -10 -7 -15 -18 -11
-26 3 -7 -1 -4 -9 7 -15 18 -15 20 9 32 14 8 25 19 24 26 0 9 -2 9 -6 -1 -2
-6 -9 -10 -14 -6 -5 3 -9 0 -9 -5 0 -6 -5 -11 -11 -11 -5 0 -7 5 -4 10 3 6 1
10 -5 10 -7 0 -10 -7 -6 -15 4 -10 -1 -14 -16 -12 -25 2 -32 -31 -11 -59 10
-13 13 -14 13 -3 1 10 3 9 11 -4 6 -9 14 -15 20 -12 5 4 9 1 9 -5 0 -7 7 -9
16 -6 10 4 13 2 8 -7 -5 -7 0 -5 11 3 17 13 18 13 10 0 -8 -13 -7 -13 11 0 18
14 18 14 5 -2 -7 -10 -10 -18 -5 -18 4 0 -1 -7 -12 -15 -16 -13 -16 -14 -1 -9
10 4 17 1 17 -7 0 -8 6 -5 15 7 11 13 13 14 9 3 -3 -12 0 -16 13 -15 10 0 19
-3 20 -7 1 -4 10 -16 21 -25 10 -9 11 -12 2 -7 -13 9 -13 8 0 -9 16 -20 23
-49 10 -41 -10 6 -7 -15 4 -34 7 -10 5 -12 -5 -7 -8 4 -3 -2 10 -13 13 -12 19
-21 13 -21 -18 0 -22 -29 -6 -45 9 -8 11 -15 6 -15 -5 0 -12 3 -16 7 -11 12
-37 12 -30 1 4 -6 3 -8 -3 -5 -5 3 -10 0 -10 -8 0 -8 4 -12 8 -9 15 9 17 -12
3 -31 -8 -10 -14 -14 -14 -9 0 6 -7 11 -15 11 -8 0 -12 -4 -9 -9 7 -12 -19 -5
-29 7 -5 6 -7 4 -4 -6 3 -9 0 -16 -7 -16 -7 0 -11 12 -8 31 2 17 3 39 3 49 0
22 -27 51 -36 37 -4 -6 -11 -8 -16 -5 -12 8 -12 35 1 35 5 0 7 -8 3 -17 -5
-15 -3 -16 7 -6 11 10 17 9 32 -4 10 -9 18 -22 18 -29 0 -7 5 -16 11 -20 18
-11 0 38 -23 63 -19 21 -19 22 -1 31 10 5 24 7 31 5 6 -3 12 0 12 5 0 6 -6 13
-12 16 -7 3 -4 4 7 3 11 -1 21 5 23 16 2 9 -2 17 -8 17 -6 0 -9 -4 -6 -8 2 -4
-5 -9 -16 -9 -20 -2 -20 -1 -2 13 16 13 16 15 2 10 -12 -3 -15 -1 -12 9 4 9
-1 12 -13 10 -10 -2 -24 -4 -31 -4 -7 -1 -10 -6 -6 -13 4 -6 3 -8 -4 -4 -7 4
-10 -1 -9 -14 1 -21 12 -27 20 -10 3 6 4 5 3 -2 -5 -24 -31 -14 -31 12 0 15 8
28 23 36 19 9 20 13 8 23 -8 6 -16 8 -18 4 -3 -4 -3 -3 -2 4 2 7 -1 15 -6 18
-6 4 -10 1 -10 -4 0 -6 -5 -11 -11 -11 -5 0 -7 5 -4 10 3 6 2 10 -3 10 -16 0
-22 -13 -11 -27 6 -7 7 -13 3 -13 -5 0 -15 9 -22 20 -8 14 -9 19 -1 18 6 -2
14 3 16 10 3 8 -2 10 -14 6 -15 -5 -16 -4 -3 5 10 7 11 13 4 19 -12 8 -13 151
-1 169 4 6 3 14 -3 18 -6 4 -8 11 -5 16 4 5 1 9 -5 9 -6 0 -8 5 -5 10 4 6 11
8 16 5 5 -4 9 -2 9 4 0 5 -5 11 -12 13 -8 3 -12 173 -15 659 -3 508 -8 1299
-14 2049 0 8 3 29 6 45 7 36 7 35 2 113 -2 34 0 65 5 68 5 3 7 13 3 22 -11 28
-22 165 -31 367 -7 173 -20 204 -90 212 -65 7 -2484 8 -2504 1z m2673 -3714
c-17 -13 -17 -14 0 -8 9 3 24 1 32 -6 15 -12 16 -11 19 12 2 17 20 20 39 6 25
-19 12 -55 -19 -54 -14 1 -29 8 -34 16 -8 13 -10 13 -10 0 0 -13 -1 -13 -10 0
-5 8 -15 15 -21 15 -7 0 -13 9 -14 21 -1 16 3 20 17 16 18 -4 18 -5 1 -18z
m154 -59 c1 -24 -1 -26 -9 -12 -7 14 -13 16 -24 6 -7 -6 -12 -15 -9 -19 3 -5
1 -11 -4 -14 -11 -7 -9 13 2 32 5 6 5 17 2 22 -4 6 -1 17 5 25 16 20 35 0 37
-40z m-2930 -31 c-3 -3 -12 -4 -19 -1 -8 3 -5 6 6 6 11 1 17 -2 13 -5z m-9
-37 c-5 -10 -12 -16 -16 -13 -3 3 -13 -6 -23 -21 -16 -24 -18 -25 -16 -6 0 12
4 20 8 17 4 -2 10 3 13 12 3 8 10 12 16 9 5 -3 10 -2 10 4 0 5 -6 11 -12 14
-7 3 -3 4 9 4 18 -1 20 -4 11 -20z m3003 -21 c-8 -10 -9 -16 -1 -21 6 -3 8
-12 4 -18 -3 -7 2 -3 10 7 9 11 19 16 23 13 4 -4 2 -12 -5 -19 -8 -8 -8 -17 0
-31 7 -14 7 -22 -2 -27 -8 -5 -7 -9 5 -14 9 -3 13 -11 10 -17 -5 -6 -12 -3
-22 10 -8 12 -21 21 -29 21 -10 0 -13 10 -10 40 2 22 0 43 -5 46 -5 3 -7 10
-3 15 3 5 10 7 15 4 5 -4 9 -1 9 6 0 7 3 9 6 6 4 -4 1 -13 -5 -21z m-204 -8
c-3 -8 -6 -5 -6 6 -1 11 2 17 5 13 3 -3 4 -12 1 -19z m-2777 2 c0 -5 -4 -10
-10 -10 -5 0 -10 5 -10 10 0 6 5 10 10 10 6 0 10 -4 10 -10z m2753 -8 c4 9 6
9 6 1 2 -20 -16 -24 -30 -5 -13 15 -12 16 3 4 13 -10 17 -10 21 0z m-2794 -28
c4 3 12 -3 18 -13 9 -14 8 -18 -3 -18 -7 0 -10 5 -7 10 4 6 0 8 -8 5 -10 -4
-15 1 -16 16 0 11 1 15 4 8 3 -6 8 -10 12 -8z m2881 1 c0 -8 -2 -15 -4 -15 -2
0 -6 7 -10 15 -3 8 -1 15 4 15 6 0 10 -7 10 -15z m-2930 -5 c0 -5 -4 -10 -10
-10 -5 0 -10 5 -10 10 0 6 5 10 10 10 6 0 10 -4 10 -10z m2852 -7 c-6 -3 -9
-10 -6 -15 4 -7 2 -8 -5 -4 -9 6 -9 11 0 22 6 8 15 12 18 8 3 -4 0 -9 -7 -11z
m-2875 -29 c24 -4 37 -21 22 -29 -8 -5 -10 -4 -5 3 7 12 -5 16 -31 13 -7 -1
-13 3 -13 10 0 8 -4 8 -15 -1 -10 -9 -15 -9 -15 -1 0 6 5 11 11 11 5 0 7 6 3
13 -5 7 -1 6 10 -3 10 -8 25 -15 33 -16z m53 -9 c0 -5 -5 -3 -10 5 -5 8 -10
20 -10 25 0 6 5 3 10 -5 5 -8 10 -19 10 -25z m2809 -9 c-3 -3 -11 5 -18 17
-13 21 -12 21 5 5 10 -10 16 -20 13 -22z m78 14 c-14 -11 -28 -20 -32 -20 -10
0 38 39 49 40 5 0 -3 -9 -17 -20z m-56 -17 c-12 -20 -14 -14 -5 12 4 9 9 14
11 11 3 -2 0 -13 -6 -23z m-2911 -13 c0 -5 -7 -7 -15 -4 -8 4 -15 8 -15 10 0
2 7 4 15 4 8 0 15 -4 15 -10z m19 -17 c-12 -15 -12 -16 4 -10 9 3 17 2 17 -3
0 -11 -23 -14 -33 -4 -3 3 -1 14 6 25 6 10 13 16 16 14 2 -3 -2 -12 -10 -22z
m58 12 c0 -8 -4 -12 -9 -9 -4 3 -8 0 -8 -7 0 -7 -3 -9 -6 -6 -4 4 -1 13 6 22
15 19 17 19 17 0z m2813 -5 c0 -5 -5 -10 -11 -10 -5 0 -7 5 -4 10 3 6 8 10 11
10 2 0 4 -4 4 -10z m23 -48 c-5 -12 -2 -12 17 -2 13 7 26 8 31 3 11 -11 2 -43
-12 -43 -14 0 -11 18 4 23 6 2 9 8 5 12 -4 4 -14 2 -22 -4 -20 -17 -33 -7 -33
25 0 17 2 22 7 13 5 -6 6 -19 3 -27z m-2845 8 c-7 -10 -14 -17 -17 -15 -4 4
18 35 25 35 2 0 -1 -9 -8 -20z m37 0 c3 -5 1 -10 -4 -10 -6 0 -11 5 -11 10 0
6 2 10 4 10 3 0 8 -4 11 -10z m2774 -12 c-5 -10 -11 -18 -12 -18 -2 0 -3 8 -3
18 0 10 6 19 13 19 8 0 9 -6 2 -19z m281 10 c0 -4 -4 -8 -9 -8 -6 0 -12 4 -15
8 -3 5 1 9 9 9 8 0 15 -4 15 -9z m-3089 -35 c-12 -20 -14 -14 -5 12 4 9 9 14
11 11 3 -2 0 -13 -6 -23z m52 -30 c-9 -7 -22 -13 -27 -12 -6 0 -5 3 2 6 6 2
10 9 7 14 -4 5 2 6 12 2 15 -5 16 -3 6 8 -7 7 -13 17 -13 23 0 5 7 1 15 -10
12 -17 12 -20 -2 -31z m3007 8 c-1 -17 -18 -33 -24 -22 -4 6 -2 11 5 11 7 0
10 2 7 5 -9 10 -38 -7 -31 -18 3 -6 1 -7 -6 -3 -9 6 -9 11 -1 21 8 9 8 15 0
20 -6 3 -8 11 -5 16 6 9 55 -18 55 -30z m-3037 14 c-3 -9 -8 -14 -10 -11 -3 3
-2 9 2 15 9 16 15 13 8 -4z m2821 0 c11 -8 17 -17 14 -20 -3 -3 -11 1 -18 10
-26 31 -30 14 -4 -20 14 -19 33 -35 42 -35 14 0 14 2 -1 13 -11 8 -14 17 -8
26 11 17 32 5 29 -17 -3 -16 17 -23 37 -13 34 18 81 -7 57 -31 -14 -14 -35 0
-28 21 5 12 2 11 -9 -3 -11 -14 -15 -16 -15 -5 0 12 -2 12 -10 -1 -5 -8 -7
-22 -5 -31 3 -9 -1 -22 -10 -29 -18 -15 -20 0 -2 19 9 11 9 12 0 7 -8 -5 -11
-2 -7 7 4 11 -2 15 -19 13 -14 0 -22 -5 -19 -11 3 -5 -1 -4 -10 3 -12 10 -17
10 -26 -1 -8 -10 -6 -16 11 -27 20 -12 21 -12 8 3 -16 20 -3 22 22 3 25 -19
21 -25 -13 -21 -16 2 -32 0 -35 -5 -3 -5 -13 -6 -21 -3 -13 5 -13 7 -2 14 10
7 10 9 -2 9 -13 0 -13 1 0 10 13 8 13 10 1 10 -11 0 -9 4 5 15 16 13 16 14 1
9 -14 -5 -16 -2 -13 17 2 16 9 23 20 21 20 -4 20 5 1 25 -8 8 -13 19 -10 24 8
12 17 11 39 -6z m-2767 -39 c0 -8 -6 -12 -15 -9 -11 5 -11 7 0 14 7 5 13 9 14
9 0 0 1 -6 1 -14z m2820 -70 c0 -8 -6 -12 -15 -9 -11 5 -11 7 0 14 7 5 13 9
14 9 0 0 1 -6 1 -14z m-1693 -328 c-9 -14 -23 2 -17 18 4 12 8 13 14 3 4 -7 5
-17 3 -21z m26 8 c0 -8 -4 -17 -9 -21 -6 -3 -9 4 -8 15 1 23 17 28 17 6z m410
-6 c0 -5 -2 -10 -4 -10 -3 0 -8 5 -11 10 -3 6 -1 10 4 10 6 0 11 -4 11 -10z"/>
<path d="M4176 1232 c2 -2 -1 -13 -6 -22 -8 -15 -6 -18 8 -15 17 3 18 24 3 36
-4 4 -6 4 -5 1z"/>
<path d="M4236 1202 c-3 -5 1 -9 9 -9 8 0 12 4 9 9 -3 4 -7 8 -9 8 -2 0 -6 -4
-9 -8z"/>
<path d="M4324 1027 c3 -21 17 -38 26 -32 5 3 7 12 4 20 -7 17 -33 28 -30 12z"/>
<path d="M4155 840 c-3 -5 -1 -10 4 -10 6 0 11 5 11 10 0 6 -2 10 -4 10 -3 0
-8 -4 -11 -10z"/>
<path d="M4083 814 c0 -7 3 -13 6 -12 18 2 23 -3 15 -15 -5 -7 -2 -5 8 5 12
13 18 15 21 6 4 -9 6 -10 6 -1 1 6 -5 15 -11 19 -20 13 -45 11 -45 -2z"/>
<path d="M4160 800 c-9 -6 -10 -10 -3 -10 6 0 15 5 18 10 8 12 4 12 -15 0z"/>
<path d="M4093 745 c0 -8 4 -12 9 -9 5 3 6 10 3 15 -9 13 -12 11 -12 -6z"/>
<path d="M4176 1422 c-3 -4 4 -9 15 -9 23 -2 25 3 4 10 -8 4 -16 3 -19 -1z"/>
<path d="M1316 1407 c3 -10 9 -15 12 -12 3 3 0 11 -7 18 -10 9 -11 8 -5 -6z"/>
<path d="M1233 1395 c0 -8 4 -12 9 -9 5 3 6 10 3 15 -9 13 -12 11 -12 -6z"/>
<path d="M4106 1402 c-3 -5 1 -9 9 -9 8 0 12 4 9 9 -3 4 -7 8 -9 8 -2 0 -6 -4
-9 -8z"/>
<path d="M1290 1386 c0 -2 7 -7 16 -10 8 -3 12 -2 9 4 -6 10 -25 14 -25 6z"/>
<path d="M4236 1382 c-3 -4 4 -9 15 -9 23 -2 25 3 4 10 -8 4 -16 3 -19 -1z"/>
<path d="M1255 1371 c-3 -5 -2 -12 3 -15 5 -3 9 1 9 9 0 17 -3 19 -12 6z"/>
<path d="M1290 1356 c0 -8 4 -17 9 -20 5 -4 7 3 4 14 -6 23 -13 26 -13 6z"/>
<path d="M1335 1351 c-3 -5 -2 -12 3 -15 5 -3 9 1 9 9 0 17 -3 19 -12 6z"/>
<path d="M4115 1351 c-3 -5 0 -13 6 -17 8 -5 9 -3 4 6 -6 10 -4 12 9 7 10 -4
15 -3 11 3 -8 13 -22 13 -30 1z"/>
<path d="M4299 1348 c-5 -16 -4 -46 2 -42 4 2 7 13 6 24 -1 17 -5 26 -8 18z"/>
<path d="M1180 1325 c8 -11 14 -21 15 -22 0 -1 9 6 20 14 18 14 18 15 1 9 -10
-3 -26 -1 -35 6 -14 12 -15 11 -1 -7z"/>
<path d="M1263 1320 c1 -14 8 -24 15 -22 14 2 16 -14 2 -23 -5 -3 -15 3 -22
15 -13 21 -33 26 -42 12 -3 -5 3 -18 13 -29 18 -19 18 -20 -1 -32 -18 -11 -19
-10 -13 8 3 10 1 22 -4 26 -6 3 -8 0 -5 -8 6 -16 -24 -19 -43 -5 -19 15 -36
-1 -21 -20 11 -13 10 -15 -5 -9 -10 4 -16 3 -13 -2 9 -14 -24 -22 -44 -11 -16
8 -21 6 -30 -12 -10 -20 -9 -21 3 -6 9 11 18 14 28 8 8 -5 21 -7 29 -5 11 3
16 -2 17 -16 2 -16 -1 -18 -12 -9 -19 16 -40 3 -25 -15 9 -11 7 -14 -9 -12
-24 2 -25 2 -9 30 10 20 10 21 -5 8 -10 -7 -17 -22 -17 -32 0 -22 -16 -34 -25
-19 -5 7 -12 5 -20 -7 -11 -15 -11 -19 2 -27 12 -6 21 -2 34 15 10 13 21 21
24 17 4 -3 -6 -20 -22 -36 -27 -28 -28 -29 -47 -11 -11 11 -22 16 -25 13 -3
-4 0 -9 7 -11 6 -3 10 -9 6 -14 -3 -5 0 -8 7 -7 6 2 14 -3 16 -10 3 -7 -1 -10
-9 -7 -17 7 -53 -29 -44 -44 4 -6 13 -8 21 -4 15 5 21 -12 8 -20 -5 -2 -3 -2
4 -1 6 2 19 -8 27 -22 9 -13 12 -24 7 -24 -6 0 -15 8 -20 18 -9 15 -10 15 -11
0 0 -9 6 -19 13 -21 10 -4 10 -6 0 -6 -7 -1 -13 -6 -13 -13 0 -9 3 -9 12 0 17
17 33 15 19 -2 -9 -11 -10 -20 -1 -36 14 -26 -5 -59 -24 -40 -5 5 -14 10 -20
10 -5 0 -1 -6 10 -14 17 -13 22 -12 42 6 18 18 22 19 22 6 0 -9 -6 -18 -12
-21 -7 -2 -9 -8 -5 -13 4 -5 12 -2 16 5 6 9 11 10 15 3 4 -6 -3 -16 -14 -22
-22 -12 -27 -30 -8 -30 6 0 8 3 5 7 -4 3 1 12 11 19 29 22 34 15 12 -16 -12
-16 -17 -30 -11 -30 6 0 11 5 11 11 0 8 6 7 16 -2 15 -12 14 -14 -7 -20 -22
-6 -22 -7 -3 -8 27 -1 36 9 23 26 -14 16 3 17 19 1 10 -10 15 -10 21 1 7 10
10 10 13 1 2 -7 19 -13 38 -14 28 -1 36 -6 38 -24 2 -12 7 -22 12 -22 12 0 31
36 23 44 -3 3 -1 6 6 6 7 0 9 5 6 10 -3 6 -1 10 6 10 16 0 3 13 -16 16 -9 1
-14 -5 -12 -18 1 -12 -5 -23 -13 -26 -12 -4 -13 -2 -3 9 10 12 8 17 -9 28 -11
7 -17 8 -14 2 5 -7 1 -8 -9 -4 -13 5 -14 7 -3 14 10 7 10 9 -2 9 -9 1 -5 6 10
16 22 13 22 14 3 9 -15 -4 -25 0 -32 12 -6 10 -11 13 -11 6 0 -12 -13 -11 -42
2 -10 4 -16 11 -13 16 3 4 -4 13 -15 19 -11 6 -18 15 -15 21 4 5 2 9 -3 9 -5
0 -9 7 -9 15 0 8 5 11 11 8 6 -4 5 0 -1 9 -7 8 -9 19 -5 23 4 5 0 4 -8 0 -9
-5 -7 1 5 15 11 13 15 21 9 17 -6 -3 -11 0 -11 8 0 8 5 11 11 8 6 -3 5 0 -1 8
-7 7 -13 17 -13 23 0 5 7 1 16 -10 8 -10 12 -13 8 -5 -3 7 0 18 7 23 11 8 10
9 -4 4 -12 -4 -16 -2 -11 6 5 7 3 8 -5 3 -10 -6 -10 -2 0 16 7 13 12 29 11 35
-2 12 47 39 63 35 6 -1 4 3 -2 10 -7 7 -13 18 -13 24 0 5 5 2 10 -7 7 -11 19
-15 35 -12 15 3 25 0 25 -7 0 -16 13 -2 16 17 1 8 -4 13 -13 12 -9 -2 -18 3
-20 10 -3 6 0 12 7 12 6 0 9 -4 6 -9 -3 -4 6 -7 20 -5 19 2 23 -1 14 -10 -7
-10 -6 -17 4 -25 11 -9 15 -9 19 1 4 8 6 6 6 -5 1 -13 -5 -16 -25 -13 -17 3
-24 1 -21 -7 2 -7 13 -11 23 -10 10 1 13 0 6 -3 -6 -3 -10 -10 -6 -15 3 -5 1
-9 -4 -9 -6 0 -12 6 -15 14 -6 14 -30 16 -43 3 -4 -3 -15 -2 -25 4 -13 6 -19
6 -19 -1 0 -5 8 -10 18 -10 11 0 5 -7 -17 -21 -18 -11 -31 -23 -27 -26 3 -3 1
-12 -5 -20 -9 -10 -5 -12 20 -9 17 2 28 -1 25 -6 -3 -5 -12 -7 -20 -4 -7 3
-16 1 -19 -4 -4 -6 1 -10 9 -10 19 0 21 -16 4 -26 -6 -4 -8 -3 -5 3 4 6 0 14
-9 17 -24 9 -28 7 -15 -7 6 -8 8 -17 4 -20 -3 -4 -1 -7 6 -7 7 0 9 -4 6 -10
-3 -5 1 -10 9 -10 9 0 15 3 15 8 -4 21 2 32 13 26 7 -5 9 -2 5 8 -3 9 -1 20 5
26 8 8 8 15 -1 26 -10 12 -9 20 6 40 19 27 41 30 59 7 9 -11 17 -5 44 34 18
26 28 45 22 41 -6 -3 -13 -2 -17 4 -4 6 -11 8 -16 5 -14 -9 -11 11 4 23 16 13
28 13 47 -1 13 -10 13 -10 2 5 -16 20 2 36 21 19 10 -7 13 -5 14 9 1 11 -3 23
-9 26 -6 4 -5 10 3 15 11 7 11 9 1 9 -7 0 -10 4 -7 10 11 17 -9 40 -25 30 -13
-8 -12 -10 3 -10 20 0 22 -11 5 -28 -17 -17 -33 -15 -18 3 12 14 9 17 -17 14
-5 0 -11 10 -15 23 -7 22 -7 22 -5 -2z m-11 -37 c24 -21 48 -25 68 -10 8 6 12
7 8 3 -4 -5 -3 -15 4 -23 6 -7 8 -16 4 -20 -3 -3 -6 0 -6 7 0 9 -9 5 -25 -10
-14 -13 -25 -20 -25 -16 0 4 -6 4 -12 -1 -19 -12 -31 -11 -55 3 -18 11 -22 11
-27 -1 -3 -8 -3 -21 0 -28 3 -8 -2 -14 -10 -14 -8 0 -13 4 -10 9 5 7 -8 12
-27 10 -15 -2 -3 28 13 34 19 6 19 6 1 20 -10 7 -14 14 -9 14 5 0 18 -7 28
-17 14 -13 18 -13 18 -2 1 10 4 9 11 -4 9 -16 12 -16 32 -2 27 19 41 19 34 2
-3 -8 0 -14 7 -14 6 0 12 8 12 18 0 10 -3 16 -7 13 -4 -2 -20 7 -36 21 -15 13
-24 25 -19 25 5 0 18 -8 28 -17z m-137 -113 c4 -6 11 -8 16 -5 5 4 9 4 9 1 0
-3 -10 -10 -21 -17 -17 -8 -20 -8 -14 1 4 7 1 16 -6 21 -9 6 -10 9 -2 9 6 0
15 -5 18 -10z m-30 -47 c-1 -10 -6 -27 -12 -38 -5 -11 -9 -39 -8 -63 1 -24 -2
-45 -7 -48 -5 -3 -5 -11 -1 -17 4 -7 8 -23 9 -36 0 -14 11 -32 23 -42 12 -10
22 -20 21 -23 -1 -19 1 -26 8 -25 4 1 10 0 15 -1 4 -1 17 -3 30 -4 16 -1 22
-7 22 -25 0 -13 6 -26 13 -28 6 -3 12 -10 12 -16 0 -8 -4 -7 -12 1 -16 16 -31
15 -22 0 5 -9 2 -9 -9 1 -18 14 -24 37 -8 26 5 -3 13 0 17 6 5 8 3 9 -6 4 -8
-5 -11 -4 -7 2 4 6 -3 10 -16 9 -14 -1 -21 4 -19 13 3 12 0 12 -12 2 -22 -18
-59 3 -51 30 4 11 3 19 -2 18 -21 -4 -31 3 -36 21 -3 11 -1 22 3 25 7 4 7 23
1 43 -1 1 -1 4 -1 7 0 3 -9 14 -20 25 -28 28 -25 44 5 24 14 -9 23 -20 20 -24
-3 -5 -2 -11 3 -14 4 -2 8 6 8 19 0 14 -4 21 -10 17 -6 -3 -5 2 3 11 18 23 8
32 -18 17 -12 -6 -21 -8 -21 -4 0 4 -9 -1 -20 -11 -11 -10 -20 -13 -20 -8 0
14 25 34 37 31 15 -4 84 82 76 94 -3 6 -2 8 4 5 5 -3 9 -14 8 -24z m-55 -3 c0
-5 -4 -10 -10 -10 -5 0 -10 5 -10 10 0 6 5 10 10 10 6 0 10 -4 10 -10z m120
-45 c-6 -8 -8 -20 -4 -27 5 -10 4 -10 -6 -1 -11 10 -11 15 0 28 7 8 15 15 17
15 3 0 0 -7 -7 -15z m-115 -45 c-3 -5 -12 -10 -18 -10 -7 0 -6 4 3 10 19 12
23 12 15 0z m110 -232 c4 4 2 -3 -4 -16 -10 -18 -15 -21 -26 -12 -8 7 -19 8
-26 4 -7 -4 -10 -2 -7 7 3 8 13 13 23 11 12 -2 15 1 9 10 -6 10 -5 11 8 1 8
-7 18 -9 23 -5z m108 -73 c-3 -9 -8 -14 -10 -11 -3 3 -2 9 2 15 9 16 15 13 8
-4z"/>
<path d="M1299 1243 c-13 -16 -12 -17 4 -4 16 13 21 21 13 21 -2 0 -10 -8 -17
-17z"/>
<path d="M1241 1227 c-8 -10 -7 -14 2 -14 8 0 14 6 14 14 0 7 -1 13 -2 13 -2
0 -8 -6 -14 -13z"/>
<path d="M1156 1208 c3 -5 10 -6 15 -3 13 9 11 12 -6 12 -8 0 -12 -4 -9 -9z"/>
<path d="M1053 1086 c-19 -22 -20 -25 -5 -31 9 -3 13 -3 9 1 -4 4 0 18 8 31
20 30 14 29 -12 -1z"/>
<path d="M1036 960 c12 -17 12 -30 1 -47 -4 -6 -3 -14 3 -18 12 -7 11 -8 14
28 2 15 -4 32 -13 40 -13 10 -14 10 -5 -3z"/>
<path d="M1056 882 c-3 -5 1 -9 9 -9 8 0 12 4 9 9 -3 4 -7 8 -9 8 -2 0 -6 -4
-9 -8z"/>
<path d="M1076 852 c-3 -5 1 -15 8 -21 11 -10 14 -9 12 3 -3 21 -13 29 -20 18z"/>
<path d="M1153 1315 c0 -8 4 -15 9 -15 4 0 8 4 8 9 0 6 -4 12 -8 15 -5 3 -9
-1 -9 -9z"/>
<path d="M4085 1320 c-4 -6 1 -7 12 -3 16 6 16 5 -1 -16 -17 -18 -17 -21 -3
-15 9 3 17 10 17 16 0 5 6 6 13 2 8 -5 8 -2 -2 9 -15 19 -27 22 -36 7z"/>
<path d="M4141 1314 c0 -11 3 -14 6 -6 3 7 2 16 -1 19 -3 4 -6 -2 -5 -13z"/>
<path d="M4190 1300 c0 -5 7 -7 15 -4 8 4 15 8 15 10 0 2 -7 4 -15 4 -8 0 -15
-4 -15 -10z"/>
<path d="M1055 1289 c-4 -6 -5 -12 -2 -15 2 -3 7 2 10 11 7 17 1 20 -8 4z"/>
<path d="M976 1282 c-3 -5 1 -9 9 -9 8 0 12 4 9 9 -3 4 -7 8 -9 8 -2 0 -6 -4
-9 -8z"/>
<path d="M1010 1281 c0 -6 4 -13 10 -16 6 -3 7 1 4 9 -7 18 -14 21 -14 7z"/>
<path d="M1125 1280 c-3 -6 1 -7 9 -4 18 7 21 14 7 14 -6 0 -13 -4 -16 -10z"/>
<path d="M1170 1280 c0 -5 5 -10 10 -10 6 0 10 5 10 10 0 6 -4 10 -10 10 -5 0
-10 -4 -10 -10z"/>
<path d="M4205 1279 c-4 -6 -4 -13 -1 -16 3 -4 6 -1 6 6 0 7 5 9 10 6 6 -3 10
-1 10 4 0 14 -17 14 -25 0z"/>
<path d="M4275 1280 c3 -5 8 -10 11 -10 2 0 4 5 4 10 0 6 -5 10 -11 10 -5 0
-7 -4 -4 -10z"/>
<path d="M1095 1271 c-6 -11 13 -26 22 -17 4 3 1 6 -6 6 -7 0 -9 5 -6 10 3 6
4 10 1 10 -3 0 -7 -4 -11 -9z"/>
<path d="M940 1260 c-9 -6 -10 -10 -3 -10 6 0 15 5 18 10 8 12 4 12 -15 0z"/>
<path d="M4294 1258 c-5 -7 -3 -8 6 -3 10 6 12 4 7 -8 -4 -11 -2 -14 9 -10 11
4 12 9 3 19 -14 17 -16 17 -25 2z"/>
<path d="M4346 1262 c-3 -5 1 -9 9 -9 8 0 15 4 15 9 0 4 -4 8 -9 8 -6 0 -12
-4 -15 -8z"/>
<path d="M1050 1254 c0 -7 52 -25 57 -20 2 2 -10 8 -26 14 -17 6 -31 9 -31 6z"/>
<path d="M896 1233 c-6 -14 -5 -15 5 -6 7 7 10 15 7 18 -3 3 -9 -2 -12 -12z"/>
<path d="M1035 1229 c-4 -6 -5 -12 -2 -15 2 -3 7 2 10 11 7 17 1 20 -8 4z"/>
<path d="M986 1217 c3 -10 9 -15 12 -12 3 3 0 11 -7 18 -10 9 -11 8 -5 -6z"/>
<path d="M4315 1220 c-3 -6 1 -7 9 -4 18 7 21 14 7 14 -6 0 -13 -4 -16 -10z"/>
<path d="M4356 1218 c3 -5 10 -6 15 -3 13 9 11 12 -6 12 -8 0 -12 -4 -9 -9z"/>
<path d="M4434 1189 c-1 -22 1 -37 4 -35 7 8 10 66 3 70 -3 2 -7 -13 -7 -35z"/>
<path d="M1016 1197 c3 -10 9 -15 12 -12 3 3 0 11 -7 18 -10 9 -11 8 -5 -6z"/>
<path d="M4080 1205 c0 -15 40 -78 46 -72 3 3 1 16 -6 29 -11 22 -11 22 5 3 9
-11 18 -19 21 -17 2 2 8 2 12 -1 4 -2 1 -2 -5 -1 -7 2 -13 0 -13 -4 0 -10 56
-64 64 -63 9 1 68 -36 67 -43 -1 -10 -45 -51 -56 -52 -5 -1 -16 -2 -24 -3 -11
-1 -10 -5 4 -21 10 -11 23 -20 29 -20 6 0 2 8 -9 16 -19 15 -19 15 -1 12 13
-2 24 5 32 20 9 19 13 20 17 8 4 -9 2 -16 -3 -16 -5 0 -7 -7 -4 -15 5 -12 10
-13 19 -5 13 11 13 8 6 -29 -1 -2 -8 2 -17 10 -13 11 -15 10 -12 -6 1 -10 -4
-20 -12 -22 -12 -4 -12 -3 -1 5 8 6 9 12 3 16 -16 10 -25 -13 -12 -29 12 -15
3 -21 -24 -16 -5 1 -3 -5 4 -14 11 -13 10 -15 -6 -9 -15 4 -16 3 -4 -4 17 -11
65 -10 77 2 4 4 2 6 -6 4 -7 -2 -15 7 -17 20 -3 20 1 24 22 21 15 -1 31 46 20
60 -13 17 -16 60 -4 67 4 3 -1 17 -12 31 -11 14 -18 28 -16 32 3 4 -6 7 -20 7
-13 0 -24 -5 -24 -10 0 -6 -5 -3 -11 6 -5 10 -16 15 -24 12 -17 -7 -21 11 -5
21 6 3 10 11 10 17 0 6 -3 9 -6 5 -4 -3 -21 1 -38 10 -17 10 -35 17 -39 18 -4
0 -12 7 -17 15 -5 8 -10 11 -10 5z m176 -130 c2 -12 -2 -12 -17 -5 -23 13 -25
22 -2 13 12 -5 14 -3 8 8 -5 8 -4 11 0 6 5 -4 10 -14 11 -22z m29 -24 c3 -5 2
-12 -3 -15 -5 -3 -9 1 -9 9 0 17 3 19 12 6z m-38 -176 c0 -8 -4 -12 -9 -9 -5
3 -6 10 -3 15 9 13 12 11 12 -6z"/>
<path d="M4310 1195 c-14 -8 -20 -14 -15 -14 6 0 21 6 35 14 14 8 21 14 15 14
-5 0 -21 -6 -35 -14z"/>
<path d="M4380 1200 c-8 -5 -10 -10 -5 -10 6 0 17 5 25 10 8 5 11 10 5 10 -5
0 -17 -5 -25 -10z"/>
<path d="M961 1193 c-1 -17 16 -25 25 -12 4 7 3 9 -4 5 -5 -3 -13 0 -15 6 -4
9 -6 10 -6 1z"/>
<path d="M4399 1173 c-13 -16 -12 -17 4 -4 9 7 17 15 17 17 0 8 -8 3 -21 -13z"/>
<path d="M929 1163 c-13 -16 -12 -17 4 -4 9 7 17 15 17 17 0 8 -8 3 -21 -13z"/>
<path d="M890 1161 c0 -6 4 -13 10 -16 6 -3 7 1 4 9 -7 18 -14 21 -14 7z"/>
<path d="M990 1160 c0 -5 7 -7 15 -4 8 4 15 8 15 10 0 2 -7 4 -15 4 -8 0 -15
-4 -15 -10z"/>
<path d="M4599 1153 c-13 -16 -12 -17 4 -4 9 7 17 15 17 17 0 8 -8 3 -21 -13z"/>
<path d="M1165 1152 c-4 -4 -10 -7 -13 -7 -15 -1 -53 -27 -48 -32 3 -4 1 -12
-6 -20 -6 -7 -8 -16 -4 -20 8 -9 47 28 40 38 -10 17 6 29 26 19 13 -7 21 -7
25 0 4 6 11 7 17 4 6 -4 9 -1 6 6 -5 15 -33 22 -43 12z m-41 -41 c3 -5 -2 -15
-12 -22 -15 -12 -16 -12 -5 2 7 9 10 19 6 22 -3 4 -4 7 0 7 3 0 8 -4 11 -9z"/>
<path d="M4348 1153 c7 -3 16 -2 19 1 4 3 -2 6 -13 5 -11 0 -14 -3 -6 -6z"/>
<path d="M856 1142 c-3 -5 1 -9 9 -9 8 0 12 4 9 9 -3 4 -7 8 -9 8 -2 0 -6 -4
-9 -8z"/>
<path d="M956 1136 c5 -13 4 -17 -4 -12 -8 5 -10 2 -5 -10 6 -15 7 -15 16 1 6
11 5 21 -3 28 -8 9 -9 7 -4 -7z"/>
<path d="M4376 1142 c-2 -4 0 -14 6 -22 8 -12 9 -11 4 4 -5 14 -2 17 9 12 9
-3 13 -2 10 4 -7 12 -22 13 -29 2z"/>
<path d="M4466 1141 c-3 -4 6 -7 19 -7 14 0 22 2 19 5 -8 8 -34 10 -38 2z"/>
<path d="M4428 1133 c7 -3 16 -2 19 1 4 3 -2 6 -13 5 -11 0 -14 -3 -6 -6z"/>
<path d="M910 1105 c0 -5 5 -17 10 -25 5 -8 10 -10 10 -5 0 6 -5 17 -10 25 -5
8 -10 11 -10 5z"/>
<path d="M4390 1100 c-8 -5 -10 -10 -5 -10 6 0 17 5 25 10 8 5 11 10 5 10 -5
0 -17 -5 -25 -10z"/>
<path d="M4486 1098 c3 -5 10 -6 15 -3 13 9 11 12 -6 12 -8 0 -12 -4 -9 -9z"/>
<path d="M4417 1073 c6 -16 5 -17 -13 -3 -10 8 -16 11 -12 6 4 -5 3 -18 -3
-28 -8 -15 -8 -23 1 -32 8 -8 9 -6 4 8 -5 13 -4 17 4 12 8 -5 10 -2 6 9 -4 10
-2 15 7 13 7 -2 15 5 17 15 2 9 -1 17 -7 17 -6 0 -7 -8 -4 -17z"/>
<path d="M950 1070 c-13 -8 -12 -10 3 -10 9 0 17 5 17 10 0 12 -1 12 -20 0z"/>
<path d="M4486 1062 c-3 -5 1 -9 9 -9 8 0 12 4 9 9 -3 4 -7 8 -9 8 -2 0 -6 -4
-9 -8z"/>
<path d="M4437 1054 c-3 -3 -3 -12 0 -20 3 -9 0 -14 -8 -12 -9 2 -14 -6 -14
-19 0 -13 4 -23 10 -22 5 0 13 -8 17 -18 7 -16 8 -16 5 2 -2 11 -9 19 -15 18
-7 -2 -12 6 -12 16 0 14 6 19 20 16 17 -3 18 -1 10 14 -5 10 -6 21 -3 25 3 3
4 6 1 6 -2 0 -7 -3 -11 -6z"/>
<path d="M930 1039 c0 -5 5 -7 10 -4 6 3 10 8 10 11 0 2 -4 4 -10 4 -5 0 -10
-5 -10 -11z"/>
<path d="M856 1018 c3 -4 11 -5 19 -1 21 7 19 12 -4 10 -11 0 -18 -5 -15 -9z"/>
<path d="M889 1003 c-13 -16 -12 -17 4 -4 9 7 17 15 17 17 0 8 -8 3 -21 -13z"/>
<path d="M934 1002 c2 -23 21 -42 41 -41 6 0 0 5 -12 12 -12 7 -22 15 -22 20
0 4 -2 13 -5 20 -2 6 -4 2 -2 -11z"/>
<path d="M4474 1005 c1 -8 8 -21 16 -28 12 -10 12 -9 2 4 -6 9 -9 18 -6 21 3
3 1 9 -4 12 -6 3 -9 -1 -8 -9z"/>
<path d="M4533 989 c-2 -23 3 -25 10 -4 4 8 3 16 -1 19 -4 3 -9 -4 -9 -15z"/>
<path d="M1089 985 c-5 -18 -4 -31 1 -40 3 -5 5 -19 5 -29 0 -27 47 -76 64
-66 8 4 23 5 33 2 15 -4 17 -7 6 -14 -9 -6 -6 -7 9 -3 25 7 42 -12 18 -21 -12
-5 -13 -9 -4 -20 9 -12 15 -12 27 -2 8 7 17 12 19 10 3 -2 8 0 11 4 4 4 2 4
-5 0 -16 -9 -28 13 -14 27 9 9 11 7 6 -8 -6 -16 -5 -17 4 -5 8 11 11 11 12 3
3 -22 4 -28 11 -38 4 -6 3 -17 -2 -25 -5 -9 -5 -20 2 -28 12 -14 -1 -34 -26
-38 -7 -1 -22 -5 -33 -8 -17 -5 -20 -2 -18 17 2 17 -3 23 -17 24 -19 2 -20 1
-2 -11 15 -12 16 -16 5 -29 -9 -12 -10 -20 -1 -34 10 -17 11 -16 5 2 -4 18 0
21 28 20 26 0 32 -4 33 -22 1 -13 -3 -23 -7 -23 -5 0 -9 -5 -9 -12 0 -6 9 -3
20 7 18 16 30 8 13 -9 -4 -3 -8 -16 -10 -28 -2 -12 -1 -19 3 -16 3 3 7 14 8
24 2 10 8 20 14 22 7 2 10 -3 6 -12 -7 -19 16 -22 35 -3 10 10 11 7 7 -16 -3
-15 -1 -25 4 -22 4 3 11 -2 14 -11 5 -12 1 -14 -15 -9 -15 5 -19 4 -15 -4 4
-6 12 -11 18 -11 6 0 17 -8 25 -17 13 -16 13 -16 4 4 -7 13 -7 24 -2 27 5 4
11 0 14 -6 3 -10 7 -10 17 -2 9 9 5 17 -18 34 -32 24 -43 46 -46 95 -1 17 -8
41 -16 55 -7 14 -13 27 -13 30 1 3 -3 4 -8 3 -5 -2 -9 2 -9 7 0 6 8 10 17 10
15 0 14 2 -3 14 -10 8 -16 18 -11 22 4 4 7 2 7 -5 0 -7 5 -9 10 -6 15 9 -57
56 -74 49 -16 -6 -42 32 -37 55 1 7 -2 10 -7 7 -5 -3 -15 1 -22 9 -14 17 -30
20 -30 6 0 -5 9 -13 20 -16 11 -4 18 -10 15 -15 -3 -5 3 -13 12 -19 10 -6 13
-11 6 -11 -6 0 -18 9 -26 21 -11 14 -17 17 -22 9 -4 -7 -2 -16 5 -20 8 -5 8
-9 -4 -13 -9 -4 -15 -3 -15 1 3 17 -2 32 -8 30 -5 -2 -9 0 -10 5 -6 16 -2 19
12 7 10 -9 15 -9 15 -1 0 13 -36 51 -49 51 -6 0 -8 9 -6 20 3 17 -2 30 -6 15z
m226 -243 c-3 -3 1 -15 8 -26 18 -30 16 -108 -3 -114 -8 -3 -12 -1 -7 3 10 11
-23 46 -36 38 -6 -3 -7 -1 -3 6 4 6 2 19 -6 28 -7 9 -8 14 -2 10 6 -4 19 2 29
13 13 15 15 23 7 33 -9 10 -8 14 3 14 8 0 13 -3 10 -5z m95 -199 c0 -3 -6 0
-13 6 -8 6 -16 9 -18 6 -3 -2 -11 5 -18 17 -13 20 -12 20 18 -1 17 -12 31 -25
31 -28z"/>
<path d="M1294 689 c-12 -13 -14 -19 -5 -17 7 2 16 -3 19 -11 3 -9 0 -11 -9
-6 -8 5 -5 -1 5 -13 11 -12 20 -22 21 -22 0 0 1 11 1 25 0 14 -4 25 -9 25 -5
0 -4 6 2 14 19 23 -4 28 -25 5z"/>
<path d="M910 973 c5 -2 8 -9 4 -14 -3 -5 0 -9 6 -9 15 0 7 23 -8 26 -7 1 -8
0 -2 -3z"/>
<path d="M4235 960 c-3 -5 -1 -10 4 -10 6 0 11 5 11 10 0 6 -2 10 -4 10 -3 0
-8 -4 -11 -10z"/>
<path d="M4396 954 c-4 -9 -4 -19 -1 -22 3 -3 5 0 5 6 0 7 5 12 11 12 5 0 7
-5 3 -12 -4 -7 -3 -8 5 -4 9 6 9 11 0 22 -14 18 -16 18 -23 -2z"/>
<path d="M830 940 c0 -5 5 -10 11 -10 5 0 7 5 4 10 -3 6 -8 10 -11 10 -2 0 -4
-4 -4 -10z"/>
<path d="M966 933 c-6 -14 -5 -15 5 -6 7 7 10 15 7 18 -3 3 -9 -2 -12 -12z"/>
<path d="M890 936 c0 -2 8 -10 18 -17 15 -13 16 -12 3 4 -13 16 -21 21 -21 13z"/>
<path d="M4437 933 c-12 -12 -7 -31 9 -37 14 -5 15 -4 5 8 -7 8 -10 20 -6 26
7 11 2 14 -8 3z"/>
<path d="M930 915 c0 -8 2 -15 4 -15 2 0 6 7 10 15 3 8 1 15 -4 15 -6 0 -10
-7 -10 -15z"/>
<path d="M4555 910 c-4 -6 -11 -7 -17 -4 -7 4 -8 2 -4 -5 6 -9 11 -9 22 0 14
11 18 19 10 19 -3 0 -8 -5 -11 -10z"/>
<path d="M950 900 c0 -5 7 -7 15 -4 8 4 15 8 15 10 0 2 -7 4 -15 4 -8 0 -15
-4 -15 -10z"/>
<path d="M990 890 c0 -5 -5 -9 -11 -7 -6 1 -13 -4 -14 -11 -2 -7 -1 -8 2 -2 3
7 12 5 24 -6 11 -10 19 -12 19 -6 0 7 -4 12 -10 12 -5 0 -7 7 -4 15 4 8 3 15
0 15 -3 0 -6 -4 -6 -10z"/>
<path d="M4410 880 c0 -5 5 -10 10 -10 6 0 10 5 10 10 0 6 -4 10 -10 10 -5 0
-10 -4 -10 -10z"/>
<path d="M4436 862 c-2 -4 -1 -14 4 -22 7 -11 9 -9 7 8 -1 24 -3 26 -11 14z"/>
<path d="M4490 859 c0 -5 5 -7 10 -4 6 3 10 8 10 11 0 2 -4 4 -10 4 -5 0 -10
-5 -10 -11z"/>
<path d="M867 839 c7 -7 15 -10 18 -7 3 3 -2 9 -12 12 -14 6 -15 5 -6 -5z"/>
<path d="M917 828 c19 -21 31 -25 14 -5 -6 8 -9 16 -6 19 3 2 -2 5 -10 5 -13
0 -13 -3 2 -19z"/>
<path d="M4370 831 c0 -6 4 -13 10 -16 6 -3 7 1 4 9 -7 18 -14 21 -14 7z"/>
<path d="M4390 836 c0 -2 9 -6 20 -9 11 -3 18 -1 14 4 -5 9 -34 13 -34 5z"/>
<path d="M4495 831 c-3 -5 -2 -12 3 -15 5 -3 9 1 9 9 0 17 -3 19 -12 6z"/>
<path d="M956 821 c-3 -5 2 -15 12 -22 16 -13 16 -13 2 5 -14 18 -13 19 3 13
11 -4 16 -3 12 3 -8 12 -22 13 -29 1z"/>
<path d="M4350 821 c0 -6 4 -13 10 -16 6 -3 7 1 4 9 -7 18 -14 21 -14 7z"/>
<path d="M910 801 c0 -6 4 -13 10 -16 6 -3 7 1 4 9 -7 18 -14 21 -14 7z"/>
<path d="M1005 800 c3 -5 8 -10 11 -10 2 0 4 5 4 10 0 6 -5 10 -11 10 -5 0 -7
-4 -4 -10z"/>
<path d="M4395 801 c-3 -5 -2 -12 3 -15 5 -3 9 1 9 9 0 17 -3 19 -12 6z"/>
<path d="M947 779 c7 -7 15 -10 18 -7 3 3 -2 9 -12 12 -14 6 -15 5 -6 -5z"/>
<path d="M1013 761 c0 -11 5 -18 9 -15 4 3 5 11 1 19 -7 21 -12 19 -10 -4z"/>
<path d="M4296 771 c-3 -4 6 -6 19 -3 14 2 25 6 25 8 0 8 -39 4 -44 -5z"/>
<path d="M4361 760 c-13 -11 -18 -20 -13 -20 6 0 14 5 17 10 4 6 10 8 14 6 4
-3 8 1 8 9 0 8 -1 15 -1 15 -1 -1 -12 -10 -25 -20z"/>
<path d="M4226 735 c-8 -22 -8 -25 4 -25 6 0 9 3 9 8 -3 20 2 25 12 12 9 -12
10 -12 7 -1 -6 21 -25 24 -32 6z"/>
<path d="M1136 728 c5 -8 2 -9 -10 -5 -10 4 -15 3 -11 -3 3 -6 1 -10 -6 -10
-7 0 -10 -3 -7 -6 8 -8 48 14 48 26 0 6 -5 10 -11 10 -5 0 -7 -5 -3 -12z"/>
<path d="M876 722 c-3 -5 1 -9 9 -9 8 0 12 4 9 9 -3 4 -7 8 -9 8 -2 0 -6 -4
-9 -8z"/>
<path d="M934 716 c1 -8 5 -18 8 -22 4 -3 5 1 4 10 -1 8 -5 18 -8 22 -4 3 -5
-1 -4 -10z"/>
<path d="M1030 720 c0 -5 5 -10 10 -10 6 0 10 5 10 10 0 6 -4 10 -10 10 -5 0
-10 -4 -10 -10z"/>
<path d="M1159 723 c-6 -35 -5 -52 2 -47 4 2 5 12 2 22 -6 15 -5 15 10 3 9 -7
17 -10 17 -7 0 11 -30 39 -31 29z"/>
<path d="M1270 720 c0 -5 5 -10 10 -10 6 0 10 5 10 10 0 6 -4 10 -10 10 -5 0
-10 -4 -10 -10z"/>
<path d="M4350 721 c0 -6 4 -13 10 -16 6 -3 7 1 4 9 -7 18 -14 21 -14 7z"/>
<path d="M4191 687 c-13 -21 -12 -21 5 -5 10 10 16 20 13 22 -3 3 -11 -5 -18
-17z"/>
<path d="M1079 673 c-13 -17 -13 -17 6 -3 11 8 22 16 24 17 2 2 0 3 -6 3 -6 0
-17 -8 -24 -17z"/>
<path d="M4216 681 c-4 -5 3 -7 14 -4 23 6 26 13 6 13 -8 0 -17 -4 -20 -9z"/>
<path d="M4295 681 c-3 -5 -2 -12 3 -15 5 -3 9 1 9 9 0 17 -3 19 -12 6z"/>
<path d="M1107 659 c7 -7 15 -10 18 -7 3 3 -2 9 -12 12 -14 6 -15 5 -6 -5z"/>
<path d="M1232 657 c-8 -9 -8 -17 0 -27 8 -13 9 -12 5 2 -3 9 -1 19 6 21 7 2
9 7 6 11 -3 4 -11 1 -17 -7z"/>
<path d="M4225 659 c-3 -4 2 -6 10 -5 21 3 28 13 10 13 -9 0 -18 -4 -20 -8z"/>
<path d="M4373 655 c0 -8 4 -12 9 -9 5 3 6 10 3 15 -9 13 -12 11 -12 -6z"/>
<path d="M1166 642 c-3 -5 1 -9 9 -9 8 0 15 4 15 9 0 4 -4 8 -9 8 -6 0 -12 -4
-15 -8z"/>
<path d="M4080 640 c-8 -5 -12 -11 -10 -14 3 -2 14 2 24 10 22 15 10 19 -14 4z"/>
<path d="M4190 642 c0 -5 7 -9 15 -9 8 0 12 4 9 9 -3 4 -9 8 -15 8 -5 0 -9 -4
-9 -8z"/>
<path d="M4256 642 c-3 -5 1 -9 9 -9 8 0 12 4 9 9 -3 4 -7 8 -9 8 -2 0 -6 -4
-9 -8z"/>
<path d="M1056 618 c3 -5 10 -6 15 -3 13 9 11 12 -6 12 -8 0 -12 -4 -9 -9z"/>
<path d="M1095 620 c3 -5 8 -10 11 -10 2 0 4 5 4 10 0 6 -5 10 -11 10 -5 0 -7
-4 -4 -10z"/>
<path d="M4094 618 c-5 -7 -2 -8 6 -3 9 6 12 4 8 -7 -4 -8 -1 -15 6 -15 17 0
16 25 0 31 -8 3 -16 0 -20 -6z"/>
<path d="M4170 616 c0 -2 8 -10 18 -17 15 -13 16 -12 3 4 -13 16 -21 21 -21
13z"/>
<path d="M1200 600 c-12 -7 -10 -9 8 -7 12 0 22 5 22 9 0 11 -12 10 -30 -2z"/>
<path d="M4076 582 c-2 -4 -1 -14 3 -20 6 -10 11 -9 21 3 11 13 10 14 -5 9
-13 -5 -16 -4 -11 4 4 7 5 12 2 12 -3 0 -7 -4 -10 -8z"/>
<path d="M4146 582 c-3 -5 1 -9 9 -9 8 0 15 4 15 9 0 4 -4 8 -9 8 -6 0 -12 -4
-15 -8z"/>
<path d="M4250 580 c0 -5 5 -10 11 -10 5 0 7 5 4 10 -3 6 -8 10 -11 10 -2 0
-4 -4 -4 -10z"/>
<path d="M1233 559 c-1 -10 2 -21 8 -24 5 -4 6 2 2 11 -4 12 -3 15 5 10 7 -4
12 -3 12 2 0 19 -26 20 -27 1z"/>
<path d="M1294 568 c3 -17 28 -17 34 0 2 6 -1 12 -8 12 -6 0 -8 -4 -5 -10 3
-5 2 -10 -4 -10 -5 0 -12 5 -14 10 -3 6 -4 5 -3 -2z"/>
<path d="M4020 559 c0 -5 5 -7 10 -4 6 3 10 8 10 11 0 2 -4 4 -10 4 -5 0 -10
-5 -10 -11z"/>
<path d="M4111 547 c-8 -10 -7 -14 2 -14 8 0 14 6 14 14 0 7 -1 13 -2 13 -2 0
-8 -6 -14 -13z"/>
<path d="M1273 535 c0 -8 4 -12 9 -9 4 3 8 9 8 15 0 5 -4 9 -8 9 -5 0 -9 -7
-9 -15z"/>
<path d="M4156 542 c-2 -4 -1 -14 4 -22 7 -11 9 -9 7 8 -1 24 -3 26 -11 14z"/>
<path d="M4021 534 c-1 -5 5 -18 12 -28 12 -16 13 -16 13 3 0 11 -3 18 -7 15
-4 -2 -10 2 -12 8 -3 7 -6 8 -6 2z"/>
<path d="M1316 522 c-3 -5 1 -9 9 -9 8 0 12 4 9 9 -3 4 -7 8 -9 8 -2 0 -6 -4
-9 -8z"/>
<path d="M3952 521 c-11 -7 -11 -9 0 -14 9 -3 15 1 15 9 0 8 -1 14 -1 14 -1 0
-7 -4 -14 -9z"/>
<path d="M1253 505 c0 -8 4 -12 9 -9 5 3 6 10 3 15 -9 13 -12 11 -12 -6z"/>
<path d="M3980 506 c0 -2 9 -6 20 -9 11 -3 18 -1 14 4 -5 9 -34 13 -34 5z"/>
<path d="M3890 490 c-9 -6 -10 -10 -3 -10 6 0 15 5 18 10 8 12 4 12 -15 0z"/>
<path d="M1510 479 c0 -4 12 -6 26 -3 18 3 23 1 18 -7 -4 -8 -3 -9 5 -5 6 4 9
11 6 15 -6 11 -55 11 -55 0z"/>
<path d="M1686 475 c-9 -26 -7 -32 5 -12 6 10 9 21 6 23 -2 3 -7 -2 -11 -11z"/>
<path d="M1712 485 c4 -4 3 -14 -4 -22 -8 -11 -7 -12 6 -7 19 7 21 20 4 30 -7
4 -10 4 -6 -1z"/>
<path d="M3786 481 c-3 -5 1 -11 9 -14 9 -4 12 -1 8 9 -6 16 -10 17 -17 5z"/>
<path d="M1490 471 c0 -6 4 -13 10 -16 6 -3 7 1 4 9 -7 18 -14 21 -14 7z"/>
<path d="M1626 463 c-6 -14 -5 -15 5 -6 7 7 10 15 7 18 -3 3 -9 -2 -12 -12z"/>
<path d="M1953 468 c-20 -26 -22 -35 -9 -35 9 0 12 7 8 16 -5 14 -3 14 10 3
14 -11 16 -11 14 2 -3 23 -12 28 -23 14z"/>
<path d="M3605 471 c-3 -5 -1 -12 5 -16 6 -4 8 -11 5 -16 -3 -5 1 -6 11 -2 15
5 15 7 0 15 -9 5 -14 13 -11 19 4 5 4 9 1 9 -3 0 -7 -4 -11 -9z"/>
<path d="M3636 471 c-4 -6 -4 -11 1 -12 52 -6 61 -5 56 8 -4 11 -8 11 -13 3
-9 -15 -21 -15 -30 0 -5 9 -9 9 -14 1z"/>
<path d="M1426 458 c3 -5 10 -6 15 -3 13 9 11 12 -6 12 -8 0 -12 -4 -9 -9z"/>
<path d="M1780 458 c0 -4 7 -8 15 -8 8 0 15 4 15 8 0 5 -7 9 -15 9 -8 0 -15
-4 -15 -9z"/>
<path d="M1885 441 c-11 -16 -13 -21 -4 -14 9 7 20 9 24 5 5 -4 5 -2 1 5 -3 7
1 13 11 15 15 3 15 5 3 10 -9 3 -23 -5 -35 -21z"/>
<path d="M2021 461 c-8 -5 -9 -11 -3 -15 5 -3 12 1 16 9 6 17 6 18 -13 6z"/>
<path d="M3544 454 c9 -6 14 -13 11 -15 -2 -3 4 -5 14 -5 10 0 18 6 18 12 0 7
-7 10 -15 6 -9 -3 -13 -1 -9 4 3 5 -3 10 -14 10 -18 0 -18 -2 -5 -12z"/>
<path d="M3925 460 c-3 -6 1 -7 9 -4 18 7 21 14 7 14 -6 0 -13 -4 -16 -10z"/>
<path d="M1576 447 c3 -10 9 -15 12 -12 3 3 0 11 -7 18 -10 9 -11 8 -5 -6z"/>
<path d="M1819 453 c0 -5 -2 -16 -4 -26 -2 -11 -1 -16 3 -13 8 8 14 46 7 46
-3 0 -5 -3 -6 -7z"/>
<path d="M2096 452 c-2 -4 -1 -14 5 -22 6 -11 9 -12 9 -2 0 8 5 10 13 6 8 -5
8 -2 -2 9 -15 19 -18 20 -25 9z"/>
<path d="M2264 449 c-3 -6 0 -15 7 -20 24 -15 34 -10 13 7 -17 14 -17 15 -1
10 11 -3 16 -2 12 4 -8 13 -22 13 -31 -1z"/>
<path d="M3275 449 c-4 -6 -4 -13 -1 -16 3 -4 6 -1 6 6 0 7 5 9 12 5 7 -4 8
-3 4 4 -9 15 -13 15 -21 1z"/>
<path d="M3396 451 c8 -8 43 -8 38 0 -2 4 -13 7 -24 6 -10 -1 -17 -3 -14 -6z"/>
<path d="M3453 446 c0 -8 5 -14 11 -13 6 1 10 -4 8 -11 -1 -8 2 -11 8 -7 6 4
5 13 -3 25 -14 24 -24 26 -24 6z"/>
<path d="M1660 446 c0 -2 8 -10 18 -17 15 -13 16 -12 3 4 -13 16 -21 21 -21
13z"/>
<path d="M2539 433 c-7 -10 -9 -15 -5 -11 5 4 16 2 25 -5 14 -10 14 -10 4 4
-7 9 -10 19 -6 22 3 4 4 7 1 7 -3 0 -12 -8 -19 -17z"/>
<path d="M2614 429 c-16 -18 -16 -19 -1 -13 9 3 17 11 17 17 0 8 3 8 11 0 6
-6 18 -9 26 -6 8 3 19 0 25 -8 8 -12 9 -11 5 1 -2 8 -12 15 -23 15 -10 1 -24
4 -30 8 -6 3 -20 -3 -30 -14z"/>
<path d="M3220 440 c0 -5 5 -10 11 -10 5 0 7 5 4 10 -3 6 -8 10 -11 10 -2 0
-4 -4 -4 -10z"/>
<path d="M3314 426 c3 -16 8 -31 11 -35 3 -3 4 7 1 23 -3 16 -8 31 -11 35 -3
3 -4 -7 -1 -23z"/>
<path d="M3967 439 c7 -7 15 -10 18 -7 3 3 -2 9 -12 12 -14 6 -15 5 -6 -5z"/>
<path d="M1990 431 c0 -6 4 -12 8 -15 5 -3 9 1 9 9 0 8 -4 15 -9 15 -4 0 -8
-4 -8 -9z"/>
<path d="M2067 426 c-4 -10 -1 -13 8 -9 8 3 12 9 9 14 -7 12 -11 11 -17 -5z"/>
<path d="M2335 430 c-3 -5 -1 -10 4 -10 6 0 11 5 11 10 0 6 -2 10 -4 10 -3 0
-8 -4 -11 -10z"/>
<path d="M2135 420 c-3 -5 -1 -10 4 -10 6 0 11 5 11 10 0 6 -2 10 -4 10 -3 0
-8 -4 -11 -10z"/>
<path d="M2213 415 c0 -8 4 -12 9 -9 5 3 6 10 3 15 -9 13 -12 11 -12 -6z"/>
<path d="M3120 426 c0 -2 7 -7 16 -10 8 -3 12 -2 9 4 -6 10 -25 14 -25 6z"/>
<path d="M3193 415 c0 -8 4 -12 9 -9 4 3 8 9 8 15 0 5 -4 9 -8 9 -5 0 -9 -7
-9 -15z"/>
<path d="M2250 417 c0 -2 6 -10 14 -16 11 -9 16 -9 22 1 4 7 4 10 -1 6 -4 -4
-14 -3 -22 3 -7 6 -13 9 -13 6z"/>
<path d="M2379 408 c15 -21 31 -23 31 -6 0 6 -3 8 -7 5 -3 -4 -13 -1 -22 6
-14 11 -14 10 -2 -5z"/>
<path d="M2870 409 c0 -5 5 -7 10 -4 6 3 10 8 10 11 0 2 -4 4 -10 4 -5 0 -10
-5 -10 -11z"/>
<path d="M2627 403 c-3 -5 6 -9 20 -10 19 -1 22 1 12 8 -17 11 -26 11 -32 2z"/>
<path d="M3006 398 c3 -5 10 -6 15 -3 13 9 11 12 -6 12 -8 0 -12 -4 -9 -9z"/>
<path d="M3096 398 c3 -5 10 -6 15 -3 13 9 11 12 -6 12 -8 0 -12 -4 -9 -9z"/>
<path d="M3507 399 c7 -7 15 -10 18 -7 3 3 -2 9 -12 12 -14 6 -15 5 -6 -5z"/>
<path d="M2153 375 c0 -8 4 -12 9 -9 5 3 6 10 3 15 -9 13 -12 11 -12 -6z"/>
<path d="M2195 380 c-3 -5 -1 -10 4 -10 6 0 11 5 11 10 0 6 -2 10 -4 10 -3 0
-8 -4 -11 -10z"/>
<path d="M2316 378 c3 -4 11 -5 19 -1 21 7 19 12 -4 10 -11 0 -18 -5 -15 -9z"/>
<path d="M2735 380 c3 -5 8 -10 11 -10 2 0 4 5 4 10 0 6 -5 10 -11 10 -5 0 -7
-4 -4 -10z"/>
<path d="M2935 381 c-3 -5 -2 -12 3 -15 5 -3 9 1 9 9 0 17 -3 19 -12 6z"/>
<path d="M3265 360 c-3 -6 1 -7 9 -4 18 7 21 14 7 14 -6 0 -13 -4 -16 -10z"/>
</g>
</svg>
